<?xml version="1.0" standalone="no"?>
<!DOCTYPE svg PUBLIC "-//W3C//DTD SVG 20010904//EN"
 "http://www.w3.org/TR/2001/REC-SVG-20010904/DTD/svg10.dtd">
<svg version="1.0" xmlns="http://www.w3.org/2000/svg"
 width="342.000000pt" height="400.000000pt" viewBox="0 0 342.000000 400.000000"
 preserveAspectRatio="xMidYMid meet">
<metadata>
Created by potrace 1.16, written by Peter Selinger 2001-2019
</metadata>
<linearGradient spreadMethod="pad" id="grad1" x1="0%" y1="81%" x2="57%" y2="0%">
<stop offset="0%" style="stop-color:rgb(0, 0, 0);stop-opacity:1;" />
	<stop offset="100%" style="stop-color:rgb(134, 134, 134);stop-opacity:1;" />
</linearGradient>
<g transform="translate(0.000000,400.000000) scale(0.100000,-0.100000)"
fill="#000000" stroke="none">
<path d="M1673 3900 c-38 -16 -43 -41 -43 -233 0 -179 1 -184 23 -205 32 -30
87 -29 115 1 21 22 22 32 22 208 0 179 -1 186 -22 207 -28 25 -66 34 -95 22z"/>
<path d="M610 3443 c-34 -12 -60 -47 -60 -81 0 -29 13 -47 86 -125 154 -163
159 -167 203 -167 31 0 44 6 60 26 43 54 33 75 -106 214 -124 124 -151 144
-183 133z"/>
<path d="M2760 3443 c-22 -8 -70 -55 -171 -165 -76 -83 -89 -103 -89 -132 0
-42 37 -76 85 -76 27 0 48 17 158 129 106 108 127 134 127 159 0 54 -64 103
-110 85z"/>
<path d="M1556 3310 c-556 -88 -958 -599 -898 -1141 25 -231 95 -398 242 -581
170 -212 242 -406 257 -686 5 -100 10 -128 25 -148 l19 -24 503 0 503 0 20 22
c17 19 22 45 32 163 22 276 86 435 289 715 185 255 256 532 207 810 -74 420
-389 757 -800 855 -82 20 -313 28 -399 15z m292 -160 c147 -24 308 -97 433
-195 119 -94 243 -291 289 -457 28 -102 36 -253 20 -357 l-12 -81 -264 0 -264
0 0 165 0 165 53 0 c29 0 58 5 65 12 17 17 15 53 -5 70 -44 37 -427 258 -448
258 -21 0 -404 -221 -447 -258 -21 -17 -23 -53 -6 -70 7 -7 34 -12 60 -12 l48
0 0 -165 0 -165 -258 0 -259 0 -11 51 c-7 28 -12 99 -12 158 0 297 149 572
401 740 183 123 409 174 617 141z m7 -597 l119 -73 -259 0 -259 0 129 79 c72
43 135 76 140 73 6 -4 64 -39 130 -79z m105 -328 l0 -165 -88 0 c-72 0 -92 -3
-104 -17 -16 -20 -98 -220 -98 -241 0 -7 16 -44 35 -82 19 -38 35 -75 35 -81
0 -6 -16 -33 -35 -59 -27 -36 -35 -58 -36 -91 l-1 -44 -15 35 c-14 31 -13 40
1 86 22 71 21 84 -21 168 l-36 73 36 95 c58 149 54 158 -75 158 l-88 0 0 165
0 165 245 0 245 0 0 -165z m-427 -322 c-14 -38 -28 -75 -30 -84 -3 -9 14 -53
37 -98 l41 -82 -22 -67 -21 -68 37 -73 37 -74 -61 7 c-168 19 -373 128 -443
235 -20 31 -60 85 -87 120 -58 73 -104 150 -126 210 l-14 41 339 0 339 0 -26
-67z m992 10 c-33 -73 -68 -130 -155 -249 -38 -53 -70 -100 -70 -105 0 -12
-133 -97 -204 -129 -82 -37 -192 -68 -273 -76 l-63 -7 0 74 c0 66 3 79 31 119
65 97 64 90 19 180 -22 44 -40 84 -40 90 0 6 14 44 31 85 l32 75 358 0 359 0
-25 -57z m-1090 -619 c85 -27 101 -28 280 -28 179 0 195 1 280 28 50 15 114
38 144 52 29 13 54 24 56 24 1 0 -13 -43 -32 -97 -38 -109 -63 -238 -63 -324
l0 -59 -385 0 -385 0 0 53 c0 96 -42 297 -87 414 -3 8 14 4 48 -12 30 -13 95
-36 144 -51z"/>
<path d="M1047 2592 c-31 -32 -57 -63 -57 -69 0 -7 14 -28 31 -47 l31 -36 -31
-37 c-17 -21 -31 -43 -31 -50 0 -7 14 -28 31 -47 l31 -36 -31 -37 c-17 -21
-31 -43 -31 -49 0 -22 38 -47 63 -40 30 7 117 99 117 124 0 10 -15 33 -33 51
l-34 32 34 34 c18 18 33 40 33 49 0 8 -14 31 -31 51 l-31 35 31 35 c34 39 36
47 21 76 -19 34 -52 22 -113 -39z"/>
<path d="M2270 2631 c-15 -29 -13 -37 21 -76 l31 -35 -31 -35 c-17 -20 -31
-43 -31 -51 0 -9 15 -31 33 -49 l34 -34 -34 -32 c-18 -18 -33 -41 -33 -51 0
-25 87 -117 117 -124 25 -7 63 18 63 40 0 6 -14 28 -31 49 l-31 37 31 36 c17
19 31 40 31 47 0 7 -14 29 -31 50 l-31 37 31 36 c17 19 31 40 31 47 0 7 -26
38 -58 70 -61 60 -94 71 -112 38z"/>
<path d="M2910 2327 c-52 -26 -60 -89 -18 -134 21 -22 28 -23 198 -23 164 0
179 2 204 21 19 15 26 30 26 54 0 85 -25 95 -227 95 -107 0 -166 -4 -183 -13z"/>
<path d="M120 2310 c-29 -29 -27 -90 3 -118 22 -21 32 -22 203 -22 180 0 181
0 204 25 32 34 33 91 1 116 -21 17 -42 19 -207 19 -171 0 -185 -1 -204 -20z"/>
<path d="M688 1313 c-120 -122 -138 -146 -138 -184 0 -34 48 -79 84 -79 26 0
50 20 158 129 115 115 128 132 128 163 0 52 -32 88 -78 88 -34 0 -47 -10 -154
-117z"/>
<path d="M2525 1404 c-46 -50 -37 -71 91 -208 146 -156 167 -167 223 -120 24
20 31 34 31 62 0 32 -12 47 -127 164 -112 113 -131 128 -160 128 -24 0 -41 -8
-58 -26z"/>
<path d="M1220 530 c-43 -43 -34 -110 20 -137 32 -16 895 -18 952 -3 21 6 42
19 48 30 18 33 12 87 -12 110 -21 20 -33 20 -505 20 -468 0 -484 -1 -503 -20z"/>
<path d="M1381 234 c-39 -33 -42 -80 -8 -112 23 -22 28 -22 354 -22 320 0 330
1 348 20 27 30 24 84 -5 115 l-23 25 -318 0 -317 0 -31 -26z"/>
</g>
</svg>
